<mxfile host="app.diagrams.net" modified="2020-12-24T00:52:18.602Z" agent="5.0 (Windows)" etag="ZgEzoRQGE5KFsYUL6Tpe" version="13.9.9" type="github">
  <diagram id="8iLvGpd113q0YUatb3TL" name="Page-1">
    <mxGraphModel dx="1038" dy="575" grid="1" gridSize="10" guides="1" tooltips="1" connect="1" arrows="1" fold="1" page="1" pageScale="1" pageWidth="827" pageHeight="1169" math="0" shadow="0">
      <root>
        <mxCell id="0" />
        <mxCell id="1" parent="0" />
        <mxCell id="D6q7JnTMNo8dkBRFwo8_-1" value="" style="rounded=0;whiteSpace=wrap;html=1;fillColor=#f5f5f5;strokeColor=#666666;fontColor=#333333;" vertex="1" parent="1">
          <mxGeometry x="240" y="80" width="490" height="480" as="geometry" />
        </mxCell>
        <mxCell id="D6q7JnTMNo8dkBRFwo8_-7" value="" style="edgeStyle=orthogonalEdgeStyle;rounded=0;orthogonalLoop=1;jettySize=auto;html=1;" edge="1" parent="1" source="D6q7JnTMNo8dkBRFwo8_-2" target="D6q7JnTMNo8dkBRFwo8_-6">
          <mxGeometry relative="1" as="geometry" />
        </mxCell>
        <mxCell id="D6q7JnTMNo8dkBRFwo8_-2" value="&lt;div&gt;CLIENTE&lt;/div&gt;&lt;div&gt;&lt;br&gt;&lt;/div&gt;" style="shape=umlActor;verticalLabelPosition=bottom;verticalAlign=top;html=1;" vertex="1" parent="1">
          <mxGeometry x="120" y="120" width="40" height="80" as="geometry" />
        </mxCell>
        <mxCell id="D6q7JnTMNo8dkBRFwo8_-6" value="&lt;div&gt;RESERVAR&lt;/div&gt;" style="ellipse;whiteSpace=wrap;html=1;" vertex="1" parent="1">
          <mxGeometry x="274" y="125" width="140" height="70" as="geometry" />
        </mxCell>
        <mxCell id="D6q7JnTMNo8dkBRFwo8_-8" value="&lt;div&gt;SIS RESERVA&lt;/div&gt;" style="ellipse;whiteSpace=wrap;html=1;" vertex="1" parent="1">
          <mxGeometry x="510" y="120" width="140" height="80" as="geometry" />
        </mxCell>
        <mxCell id="D6q7JnTMNo8dkBRFwo8_-12" value="Extends" style="endArrow=block;endSize=16;endFill=0;html=1;dashed=1;" edge="1" parent="1" source="D6q7JnTMNo8dkBRFwo8_-8" target="D6q7JnTMNo8dkBRFwo8_-6">
          <mxGeometry width="160" relative="1" as="geometry">
            <mxPoint x="330" y="300" as="sourcePoint" />
            <mxPoint x="490" y="300" as="targetPoint" />
          </mxGeometry>
        </mxCell>
        <mxCell id="D6q7JnTMNo8dkBRFwo8_-13" value="&lt;div&gt;SIS PAGAMENTO&lt;/div&gt;" style="ellipse;whiteSpace=wrap;html=1;" vertex="1" parent="1">
          <mxGeometry x="510" y="270" width="140" height="70" as="geometry" />
        </mxCell>
        <mxCell id="D6q7JnTMNo8dkBRFwo8_-14" value="&amp;lt;&amp;lt;include&amp;gt;&amp;gt;" style="edgeStyle=none;html=1;endArrow=open;verticalAlign=bottom;dashed=1;labelBackgroundColor=none;entryX=0.5;entryY=1;entryDx=0;entryDy=0;" edge="1" parent="1" source="D6q7JnTMNo8dkBRFwo8_-13" target="D6q7JnTMNo8dkBRFwo8_-8">
          <mxGeometry width="160" relative="1" as="geometry">
            <mxPoint x="330" y="300" as="sourcePoint" />
            <mxPoint x="490" y="300" as="targetPoint" />
          </mxGeometry>
        </mxCell>
        <mxCell id="D6q7JnTMNo8dkBRFwo8_-15" value="PAGAR" style="ellipse;whiteSpace=wrap;html=1;" vertex="1" parent="1">
          <mxGeometry x="510" y="410" width="140" height="70" as="geometry" />
        </mxCell>
        <mxCell id="D6q7JnTMNo8dkBRFwo8_-16" value="Extends" style="endArrow=block;endSize=16;endFill=0;html=1;dashed=1;exitX=0.5;exitY=0;exitDx=0;exitDy=0;entryX=0.5;entryY=1;entryDx=0;entryDy=0;" edge="1" parent="1" source="D6q7JnTMNo8dkBRFwo8_-15" target="D6q7JnTMNo8dkBRFwo8_-13">
          <mxGeometry width="160" relative="1" as="geometry">
            <mxPoint x="330" y="300" as="sourcePoint" />
            <mxPoint x="490" y="300" as="targetPoint" />
          </mxGeometry>
        </mxCell>
      </root>
    </mxGraphModel>
  </diagram>
</mxfile>
